<?xml version="1.0" standalone="no"?>
<!DOCTYPE svg PUBLIC "-//W3C//DTD SVG 20010904//EN"
 "http://www.w3.org/TR/2001/REC-SVG-20010904/DTD/svg10.dtd">
<svg version="1.0" xmlns="http://www.w3.org/2000/svg"
 width="1132.000000pt" height="1132.000000pt" viewBox="0 0 1132.000000 1132.000000"
 preserveAspectRatio="xMidYMid meet">

<g transform="translate(0.000000,1132.000000) scale(0.100000,-0.100000)"
fill="#000000" stroke="none">
<path d="M5903 10983 c9 -2 23 -2 30 0 6 3 -1 5 -18 5 -16 0 -22 -2 -12 -5z"/>
<path d="M6118 10963 c7 -3 16 -2 19 1 4 3 -2 6 -13 5 -11 0 -14 -3 -6 -6z"/>
<path d="M5090 10909 c-663 -67 -1125 -199 -1715 -489 -1996 -984 -3160 -3102
-2919 -5315 103 -949 462 -1853 1041 -2616 237 -313 567 -653 882 -909 268
-217 725 -483 1108 -644 206 -86 596 -224 679 -240 26 -5 146 -33 202 -48 23
-6 45 -9 47 -6 3 3 -34 15 -82 28 -376 98 -816 280 -1183 488 -167 94 -464
293 -620 414 -1036 806 -1731 1967 -1944 3248 -157 947 -57 1891 296 2780 378
953 1053 1795 1900 2371 513 348 1060 596 1643 744 446 114 821 160 1295 159
307 0 509 -16 781 -59 85 -14 172 -27 194 -30 98 -12 -82 27 -270 59 -192 32
-274 43 -505 66 -122 12 -706 11 -830 -1z"/>
<path d="M6618 10883 c7 -3 16 -2 19 1 4 3 -2 6 -13 5 -11 0 -14 -3 -6 -6z"/>
<path d="M6690 10870 c8 -5 24 -9 35 -9 l20 0 -20 9 c-11 5 -27 9 -35 9 -13 1
-13 0 0 -9z"/>
<path d="M6780 10850 c8 -5 26 -9 40 -9 l25 1 -25 8 c-14 4 -32 8 -40 9 -13 1
-13 0 0 -9z"/>
<path d="M6852 10835 c3 -3 61 -21 129 -40 683 -187 1300 -513 1933 -1023 611
-492 1073 -1053 1417 -1717 466 -901 659 -1949 544 -2955 -175 -1533 -1017
-2904 -2305 -3756 -207 -137 -347 -217 -575 -329 -347 -170 -680 -291 -1075
-390 -114 -29 -224 -53 -335 -75 -140 -27 -184 -35 -345 -59 -64 -9 -193 -22
-427 -41 -348 -29 -851 5 -1262 86 -178 34 -241 40 -109 10 275 -64 478 -98
763 -128 165 -18 848 -17 1015 0 478 52 869 140 1295 294 906 327 1722 915
2336 1683 639 799 1033 1790 1124 2825 17 204 20 670 5 871 -86 1115 -524
2171 -1256 3029 -133 156 -451 472 -603 599 -621 518 -1319 879 -2091 1080
-148 39 -190 47 -178 36z"/>
<path d="M6748 10773 c6 -2 18 -2 25 0 6 3 1 5 -13 5 -14 0 -19 -2 -12 -5z"/>
<path d="M6818 10758 c6 -6 18 -8 28 -6 14 3 12 5 -9 10 -19 3 -25 2 -19 -4z"/>
<path d="M4514 10646 c-153 -37 -265 -139 -415 -376 -483 -768 -598 -1667
-338 -2639 97 -361 291 -822 492 -1171 31 -52 54 -96 52 -98 -2 -2 -27 9 -56
24 -74 37 -166 70 -219 79 -25 4 -76 26 -115 50 -130 80 -248 119 -398 131
-76 6 -90 4 -107 -11 -11 -10 -20 -24 -20 -31 0 -16 13 -19 145 -33 112 -11
178 -32 290 -87 69 -35 75 -41 75 -70 l0 -31 -112 -6 c-177 -9 -308 -58 -308
-114 0 -18 49 -16 94 2 53 22 169 45 230 45 96 0 112 -7 144 -64 76 -133 230
-299 437 -472 160 -132 243 -195 545 -411 366 -262 502 -332 642 -333 57 0 71
4 97 25 35 30 55 84 46 125 -4 17 -4 30 0 30 4 0 43 -13 88 -29 112 -39 317
-87 462 -107 167 -24 528 -25 680 -1 519 81 816 308 880 672 38 221 -6 479
-137 793 -112 270 -243 478 -397 633 -154 153 -299 235 -483 273 -204 42 -473
-1 -715 -114 -46 -21 -83 -36 -83 -33 0 3 31 49 69 102 158 221 250 379 283
488 29 97 36 306 14 433 -58 339 -227 686 -629 1294 -419 634 -737 953 -1022
1026 -88 23 -137 24 -211 6z m-44 -218 c25 -27 25 -54 1 -95 -41 -66 -132 -47
-139 29 -6 73 88 119 138 66z m342 -145 c43 -39 7 -123 -54 -123 -42 0 -68 25
-68 66 0 59 79 96 122 57z m-328 -205 c28 -40 14 -139 -26 -183 -7 -8 -29 -35
-48 -61 -19 -25 -51 -66 -70 -89 -19 -24 -57 -71 -85 -106 -27 -35 -74 -88
-103 -118 l-53 -55 -21 22 c-17 17 -21 32 -20 76 5 179 166 422 339 511 59 30
68 31 87 3z m636 -198 c43 -43 7 -120 -55 -120 -66 0 -89 69 -39 115 33 30 67
32 94 5z m-265 -111 c15 -29 15 -32 -9 -72 -13 -23 -44 -60 -68 -83 -84 -80
-353 -306 -373 -314 -53 -21 -72 63 -33 148 64 138 160 237 312 318 44 24 74
34 108 34 43 0 49 -3 63 -31z m453 -209 c4 -40 -16 -60 -60 -60 -21 0 -31 6
-37 23 -17 45 10 79 58 75 33 -3 36 -6 39 -38z m-470 -180 c36 -22 52 -54 52
-104 0 -92 -159 -166 -219 -102 -51 54 -29 150 46 201 45 30 77 32 121 5z
m-809 -44 c18 -19 21 -33 20 -85 -2 -66 -13 -83 -55 -83 -38 0 -54 22 -61 83
-4 45 -2 58 17 82 26 33 50 34 79 3z m306 -105 c50 -22 61 -36 76 -92 15 -57
-1 -96 -51 -122 -42 -22 -124 -18 -164 8 -35 23 -50 73 -37 122 26 95 87 125
176 84z m1163 -23 c32 -32 -2 -88 -53 -88 -28 0 -34 4 -38 28 -8 38 16 72 51
72 16 0 33 -5 40 -12z m-543 -229 c67 -27 104 -71 75 -89 -8 -5 -31 -10 -50
-10 -54 -1 -329 -55 -383 -76 -25 -9 -67 22 -67 50 0 37 73 112 133 135 73 29
207 25 292 -10z m395 -18 c34 -64 -25 -148 -95 -135 -37 7 -36 5 -42 51 -5 35
-2 42 31 71 43 37 89 43 106 13z m-1291 -75 c40 -42 49 -112 56 -421 3 -164 2
-296 -3 -303 -7 -10 -14 -11 -35 -1 -49 22 -92 120 -136 312 -6 26 -11 98 -11
160 1 221 56 330 129 253z m392 -137 c18 -9 20 -20 18 -95 -1 -46 -5 -87 -10
-90 -5 -3 -9 -20 -9 -39 0 -19 -4 -37 -10 -40 -5 -3 -10 -21 -10 -40 0 -19 -4
-37 -10 -40 -5 -3 -10 -26 -10 -50 0 -24 -4 -47 -10 -50 -5 -3 -10 -32 -10
-64 0 -70 -23 -134 -47 -129 -9 2 -28 26 -42 53 -25 47 -26 58 -26 205 0 138
3 163 24 225 48 139 94 186 152 154z m704 -63 c79 -21 173 -73 231 -128 66
-62 99 -139 90 -207 -10 -77 -137 -280 -287 -460 -113 -136 -408 -451 -422
-451 -3 0 -8 26 -12 58 -29 245 -71 415 -158 642 -17 45 -21 78 -22 175 0 112
2 123 27 172 54 103 127 158 253 194 74 21 230 24 300 5z m599 -129 c23 -37
-53 -115 -90 -92 -33 21 -35 52 -7 85 20 24 32 30 56 28 16 -2 35 -11 41 -21z
m251 -9 c30 -14 43 -52 24 -74 -14 -17 -61 -13 -86 7 -19 16 -16 56 5 68 22
13 26 13 57 -1z m-83 -218 c114 -35 188 -123 188 -224 0 -136 -155 -457 -394
-816 -154 -232 -249 -352 -348 -440 -189 -168 -423 -406 -595 -605 -28 -33
-53 -58 -56 -55 -3 3 -1 28 4 55 5 28 13 111 19 185 6 74 15 171 21 214 5 44
9 113 9 155 1 94 24 326 38 366 25 80 71 144 200 283 256 275 393 439 580 697
107 148 133 171 217 191 27 7 51 13 51 13 1 1 31 -8 66 -19z m-1522 -345 c28
-15 74 -74 97 -125 85 -190 126 -679 104 -1257 -6 -170 -11 -327 -11 -350 0
-72 -39 -50 -67 37 -26 79 -72 230 -93 300 -12 41 -25 84 -30 95 -17 45 -30
92 -30 108 0 10 -4 25 -10 35 -8 14 -71 266 -100 397 -31 142 -48 258 -66 432
-8 85 9 209 38 266 34 68 106 94 168 62z m2164 -655 c33 -12 33 -38 1 -50 -47
-18 -105 21 -70 47 22 16 35 16 69 3z m521 -114 c64 -27 68 -86 5 -86 -57 0
-103 65 -62 89 22 13 17 13 57 -3z m-498 -107 c38 -18 43 -25 43 -55 0 -32 -3
-36 -82 -75 -203 -102 -432 -248 -678 -433 -87 -65 -164 -116 -177 -116 -25 0
-53 25 -53 47 0 16 72 182 112 258 74 142 250 285 424 346 146 51 336 64 411
28z m-927 -348 c0 -11 -4 -22 -9 -25 -4 -3 -11 -19 -14 -35 -3 -16 -31 -80
-61 -143 -48 -101 -63 -122 -133 -188 -83 -80 -185 -146 -361 -235 -101 -51
-272 -119 -272 -108 0 31 258 294 452 460 134 115 370 291 391 293 4 0 7 -9 7
-19z m1557 -52 c49 -25 99 -86 103 -124 8 -69 -10 -85 -99 -91 -152 -12 -308
-45 -456 -97 -81 -29 -100 -32 -190 -30 -104 2 -129 5 -207 23 -54 13 -61 31
-20 53 273 144 493 236 697 290 43 12 124 0 172 -24z m-828 -398 c99 -14 135
-28 139 -57 8 -59 -236 -191 -430 -234 -76 -16 -233 -38 -398 -55 -294 -30
-392 -48 -585 -107 -38 -12 -73 -26 -77 -32 -4 -6 -10 -7 -15 -2 -14 14 69
154 135 226 97 106 200 175 327 217 56 19 88 26 220 51 68 13 579 7 684 -7z
m706 -250 c27 -6 79 -16 115 -23 36 -7 67 -13 70 -13 131 -26 218 -120 208
-226 -10 -102 -111 -150 -229 -108 -211 75 -300 103 -411 130 -147 35 -223 51
-263 54 -16 2 -41 5 -55 9 -14 3 -47 8 -75 10 -27 2 -62 7 -76 11 -31 8 -80
13 -136 14 -24 1 -43 4 -43 9 0 17 196 92 295 112 33 6 74 15 90 19 44 12 451
13 510 2z m-755 -220 c41 -6 111 -16 155 -22 92 -12 195 -33 350 -69 28 -6 62
-14 78 -17 15 -3 30 -9 33 -14 3 -5 15 -9 27 -9 12 0 60 -14 107 -30 68 -23
93 -38 127 -73 81 -86 81 -181 1 -235 -38 -25 -50 -27 -132 -26 -50 0 -113 5
-141 12 -27 6 -79 16 -115 22 -36 6 -85 15 -110 20 -25 5 -94 18 -155 29 -152
29 -422 83 -655 131 -107 22 -238 49 -290 60 -52 10 -138 28 -190 40 -192 41
-296 63 -327 67 -18 3 -33 9 -33 14 0 5 3 9 8 9 6 0 40 7 197 41 114 25 302
53 420 63 88 7 568 -3 645 -13z m-1128 -202 c57 -12 121 -25 143 -29 22 -4 83
-17 135 -29 52 -12 120 -26 150 -32 103 -20 135 -27 205 -42 39 -8 84 -18 100
-21 33 -6 90 -18 148 -31 12 -2 36 -7 52 -10 17 -2 48 -8 70 -13 22 -5 42 -9
45 -9 3 -1 16 -4 30 -7 14 -3 41 -8 60 -12 69 -12 126 -22 185 -34 105 -21
159 -31 215 -39 30 -4 64 -12 75 -16 54 -22 72 -65 35 -85 -79 -42 -431 -62
-632 -36 -213 28 -475 104 -701 202 -158 70 -467 242 -467 260 0 9 56 2 152
-17z"/>
<path d="M341 6784 c0 -11 3 -14 6 -6 3 7 2 16 -1 19 -3 4 -6 -2 -5 -13z"/>
<path d="M321 6684 c0 -11 3 -14 6 -6 3 7 2 16 -1 19 -3 4 -6 -2 -5 -13z"/>
<path d="M301 6564 c0 -11 3 -14 6 -6 3 7 2 16 -1 19 -3 4 -6 -2 -5 -13z"/>
<path d="M281 6424 c0 -11 3 -14 6 -6 3 7 2 16 -1 19 -3 4 -6 -2 -5 -13z"/>
<path d="M10783 6030 c0 -25 2 -35 4 -22 2 12 2 32 0 45 -2 12 -4 2 -4 -23z"/>
<path d="M10781 5954 c0 -11 3 -14 6 -6 3 7 2 16 -1 19 -3 4 -6 -2 -5 -13z"/>
<path d="M251 5324 c0 -11 3 -14 6 -6 3 7 2 16 -1 19 -3 4 -6 -2 -5 -13z"/>
<path d="M6641 4963 c-31 -4 -33 -6 -26 -36 4 -18 8 -279 10 -581 l3 -549 68
0 67 0 -2 206 c-3 231 -3 230 61 176 43 -34 214 -236 273 -321 22 -31 49 -58
60 -60 11 -1 54 -1 96 2 l77 5 -49 64 c-81 107 -183 223 -280 316 l-92 89 24
15 c85 56 329 273 329 292 0 5 -40 9 -89 9 l-89 0 -21 -32 c-24 -40 -247 -260
-279 -277 l-23 -12 3 350 3 351 -45 -2 c-25 0 -60 -3 -79 -5z"/>
<path d="M2845 4883 c-126 -17 -235 -74 -324 -169 -109 -116 -161 -246 -161
-399 1 -249 128 -431 353 -506 78 -26 90 -27 237 -24 88 2 179 10 210 18 l55
13 0 237 0 237 -73 0 -72 0 5 -82 c2 -46 7 -133 10 -195 l5 -111 -65 -7 c-209
-23 -389 72 -474 249 -12 24 -29 79 -38 122 -39 193 51 391 214 470 73 36 193
44 310 20 44 -9 85 -16 90 -16 6 0 14 21 17 48 4 26 9 54 12 63 4 14 -8 19
-59 28 -61 10 -188 13 -252 4z"/>
<path d="M4478 4599 c-120 -17 -122 -19 -130 -80 -3 -29 -5 -56 -3 -58 2 -2
36 4 75 14 52 13 99 16 183 13 160 -6 196 -29 210 -140 9 -68 3 -78 -52 -78
-92 -1 -250 -29 -306 -55 -196 -93 -200 -359 -6 -424 42 -14 161 -14 221 0 24
5 66 21 93 35 60 30 67 30 67 0 0 -30 6 -32 76 -28 l56 4 -8 31 c-4 18 -8 160
-9 317 0 278 -1 286 -24 333 -28 58 -73 90 -156 112 -63 16 -192 18 -287 4z
m335 -541 c8 -133 6 -135 -100 -168 -153 -47 -273 -3 -273 101 0 111 99 175
276 178 l91 2 6 -113z"/>
<path d="M5255 4605 c-5 -2 -31 -6 -56 -10 l-46 -6 15 -67 c12 -51 15 -145 16
-397 1 -308 2 -330 19 -329 9 0 41 1 70 2 l52 2 0 278 0 279 28 36 c16 21 47
47 70 58 36 19 53 21 132 16 l91 -5 12 52 c17 73 17 73 -38 85 -116 25 -186 5
-258 -72 -23 -26 -45 -47 -47 -47 -3 0 -5 15 -5 34 0 81 -14 105 -55 91z"/>
<path d="M5885 4594 c-44 -8 -83 -18 -86 -22 -4 -4 -10 -31 -14 -61 -7 -53 -7
-54 16 -48 92 22 161 29 253 25 86 -3 110 -7 133 -24 40 -29 63 -81 63 -140
l0 -51 -97 -7 c-114 -8 -218 -28 -262 -50 -158 -82 -199 -273 -81 -380 52 -47
104 -60 218 -53 75 4 105 11 158 36 37 17 70 31 75 31 5 0 9 -11 9 -25 0 -24
2 -25 66 -25 64 0 66 1 59 23 -4 12 -10 159 -14 327 -7 340 -7 342 -81 401
-71 57 -240 74 -415 43z m365 -543 l0 -118 -59 -27 c-108 -48 -234 -44 -287 9
-20 20 -24 34 -24 80 0 51 3 59 38 96 51 55 120 77 240 78 l92 1 0 -119z"/>
<path d="M7610 4605 c-8 -2 -47 -8 -86 -15 l-71 -11 -10 -60 c-11 -67 -13 -66
66 -45 29 7 103 14 165 15 98 2 116 -1 156 -21 53 -27 72 -61 78 -139 l4 -56
-98 -7 c-121 -8 -219 -28 -271 -54 -168 -86 -195 -306 -48 -397 47 -29 53 -30
164 -29 109 0 120 2 182 32 37 18 70 32 73 32 3 0 6 -11 6 -24 0 -30 5 -32 81
-28 51 3 59 6 54 20 -14 38 -22 218 -18 392 7 256 -10 309 -120 364 -52 26
-69 29 -175 32 -64 2 -124 1 -132 -1z m298 -554 l-3 -116 -44 -22 c-64 -33
-140 -47 -205 -39 -103 13 -147 79 -111 171 29 77 120 122 251 124 43 1 79 3
82 5 2 3 10 2 18 -1 12 -4 14 -28 12 -122z"/>
<path d="M3447 4583 c-3 -5 -2 -70 2 -147 5 -76 6 -182 3 -235 -5 -120 11
-258 37 -309 44 -87 128 -119 279 -109 73 5 94 11 159 47 41 22 76 40 79 40 2
0 4 -15 4 -34 0 -41 3 -42 75 -38 l56 4 -8 76 c-4 43 -8 220 -8 395 l0 318
-70 -3 -70 -3 4 -311 4 -311 -24 -17 c-44 -31 -156 -59 -214 -53 -147 15 -168
73 -163 465 l3 232 -72 0 c-39 0 -74 -3 -76 -7z"/>
<path d="M8217 4553 c8 -21 60 -144 115 -273 168 -395 195 -497 154 -595 -31
-73 -108 -135 -186 -150 l-35 -6 4 -56 3 -56 64 6 c138 13 191 69 249 262 62
206 93 292 188 520 83 200 147 366 147 382 0 2 -35 3 -77 1 l-78 -3 -3 -30
c-4 -41 -23 -109 -87 -310 -30 -93 -63 -201 -73 -240 -18 -64 -20 -67 -26 -40
-18 80 -33 128 -112 355 -47 135 -88 251 -90 258 -2 8 -29 12 -88 12 l-85 0
16 -37z"/>
<path d="M3951 3270 c-27 -43 -28 -50 -13 -50 10 0 37 20 61 44 41 42 42 43
19 50 -35 9 -34 9 -67 -44z"/>
<path d="M7235 3312 c-6 -4 -23 -26 -38 -49 l-27 -43 22 0 c24 1 103 82 91 94
-9 8 -36 7 -48 -2z"/>
<path d="M8885 3096 l0 -214 28 -5 c15 -2 29 -1 30 2 1 3 1 102 -1 219 l-3
212 -27 0 -27 0 0 -214z"/>
<path d="M1936 3269 c-8 -19 -44 -108 -81 -199 -37 -91 -69 -171 -72 -178 -4
-10 3 -13 26 -10 30 3 34 8 54 68 l22 65 78 3 c44 2 84 -2 91 -7 7 -6 21 -38
31 -71 17 -58 20 -60 51 -60 l33 0 -13 38 c-8 20 -39 101 -70 179 -30 78 -58
153 -62 168 -4 15 -13 25 -24 25 -10 0 -26 3 -34 6 -12 4 -20 -3 -30 -27z
m104 -200 c0 -10 -122 -21 -131 -12 -5 5 4 42 19 83 16 41 32 84 36 95 6 16
15 0 42 -70 19 -49 34 -93 34 -96z"/>
<path d="M2477 3294 c-4 -4 -7 -27 -7 -51 0 -31 -4 -43 -15 -44 -8 -1 -21 -2
-27 -3 -16 -1 -23 -36 -9 -37 6 -1 17 -2 24 -3 8 -1 13 -33 17 -111 3 -62 11
-120 18 -132 14 -26 44 -36 92 -31 50 5 49 26 0 34 -54 9 -62 29 -58 148 l3
91 43 3 c28 2 42 8 42 17 0 9 -14 15 -42 17 l-43 3 0 50 c0 37 -4 50 -15 53
-9 1 -19 0 -23 -4z"/>
<path d="M5373 3085 l-81 -205 31 0 c31 0 33 3 52 68 l20 67 70 3 c106 5 110
2 130 -73 18 -63 19 -65 51 -65 40 0 45 -24 -49 222 l-72 188 -35 0 -35 0 -82
-205z m162 33 l23 -58 -34 -2 c-19 -1 -47 -2 -63 -3 -39 -3 -58 9 -45 27 6 7
21 42 33 78 12 36 25 72 28 80 3 10 10 1 20 -25 9 -22 26 -66 38 -97z"/>
<path d="M2231 3192 c-21 -3 -23 -7 -17 -40 3 -21 6 -90 6 -154 l0 -118 25 0
25 0 0 109 c0 106 1 110 26 130 17 13 41 21 65 21 32 0 39 3 39 20 0 42 -76
46 -109 6 -18 -22 -30 -20 -24 3 6 22 -4 28 -36 23z"/>
<path d="M2775 3192 c-86 -20 -139 -157 -91 -237 31 -52 64 -69 142 -73 56 -3
74 -1 87 13 9 9 17 20 17 24 0 4 -36 7 -81 6 -76 0 -82 2 -105 28 -13 15 -24
37 -24 48 0 18 8 19 106 19 l106 0 -4 56 c-4 45 -10 61 -34 84 -29 28 -79 42
-119 32z m82 -55 c7 -7 15 -27 19 -45 6 -32 6 -32 -37 -34 -57 -3 -111 0 -117
7 -10 10 22 67 47 80 28 16 68 12 88 -8z"/>
<path d="M3313 3193 c-49 -4 -53 -6 -53 -29 0 -22 3 -24 28 -17 39 11 110 7
127 -7 8 -7 15 -24 15 -39 0 -24 -4 -26 -45 -28 -117 -5 -186 -103 -120 -168
28 -28 94 -34 141 -13 22 10 28 10 32 0 2 -6 13 -12 25 -12 21 0 22 3 19 117
-1 65 -5 128 -7 140 -10 44 -65 63 -162 56z m117 -207 c0 -59 -8 -66 -80 -66
-41 0 -60 14 -60 45 0 37 55 72 118 74 20 1 22 -3 22 -53z"/>
<path d="M3594 3193 c-19 -4 -20 -9 -16 -156 2 -84 5 -153 6 -154 0 0 10 -3
21 -5 19 -3 20 3 23 118 3 140 11 156 82 158 67 1 75 -15 73 -154 l-1 -120 29
0 29 0 0 115 c0 147 -12 179 -71 195 -35 10 -50 9 -86 -5 -38 -15 -46 -15 -56
-3 -7 8 -21 12 -33 11z"/>
<path d="M3929 3193 c-13 -3 -15 -27 -15 -158 l1 -155 28 0 27 0 0 160 c0 165
0 164 -41 153z"/>
<path d="M4114 3192 c-42 -2 -53 -7 -57 -22 -7 -27 3 -31 47 -19 38 11 92 4
114 -13 17 -14 15 -58 -3 -58 -7 0 -38 -5 -67 -11 -96 -21 -138 -98 -87 -163
18 -22 28 -26 74 -26 30 0 57 5 60 10 3 6 15 10 26 10 10 0 19 -4 19 -10 0 -5
10 -10 23 -10 22 0 22 1 19 117 -1 65 -5 128 -7 140 -10 44 -60 61 -161 55z
m116 -206 c0 -59 -8 -66 -80 -66 -41 0 -60 14 -60 45 0 37 55 72 118 74 20 1
22 -3 22 -53z"/>
<path d="M4606 3189 c-96 -27 -136 -170 -72 -254 32 -41 80 -58 155 -53 42 2
57 8 68 25 l15 22 -71 -6 c-56 -5 -75 -2 -95 11 -28 18 -59 70 -49 80 4 3 53
6 110 6 l103 0 0 35 c0 98 -75 160 -164 134z m91 -57 c7 -9 13 -22 13 -29 0
-6 2 -18 6 -26 4 -11 -7 -15 -49 -20 -29 -3 -68 -2 -85 1 l-32 7 18 35 c29 58
96 75 129 32z"/>
<path d="M4928 3180 c-40 -16 -48 -17 -48 -5 0 9 -9 15 -23 15 l-24 0 1 -154
c1 -151 1 -155 23 -159 13 -2 25 -2 28 1 3 3 5 61 5 128 0 139 4 146 83 148
59 1 67 -16 67 -156 l0 -118 30 0 30 0 -1 108 c-2 133 -7 160 -39 183 -38 28
-79 31 -132 9z"/>
<path d="M5830 3192 c-8 -3 -27 -13 -42 -23 -34 -24 -41 -24 -33 2 6 18 3 20
-22 17 -15 -2 -27 -6 -25 -10 1 -5 2 -73 2 -153 l0 -145 30 0 30 0 0 115 0
114 30 16 c16 8 43 15 60 15 25 0 30 4 30 24 0 24 -29 38 -60 28z"/>
<path d="M5968 3193 c-16 -4 -18 -20 -18 -159 l0 -154 28 0 29 0 -4 108 c-5
139 -2 146 47 162 37 12 43 12 68 -7 27 -20 27 -21 26 -142 l-1 -121 28 0 29
0 0 126 0 125 35 15 c41 17 81 10 96 -18 6 -11 9 -67 7 -133 l-3 -115 28 0 27
0 0 128 c0 146 -7 164 -69 183 -33 10 -45 8 -86 -10 -44 -20 -50 -20 -66 -5
-20 18 -97 21 -127 5 -25 -13 -55 -14 -47 -2 7 12 -5 19 -27 14z"/>
<path d="M6567 3186 c-73 -27 -107 -78 -107 -163 0 -87 55 -143 142 -143 88 0
148 65 148 160 0 113 -85 181 -183 146z m96 -53 c25 -23 41 -85 33 -128 -10
-51 -46 -85 -91 -85 -44 0 -70 25 -85 81 -30 112 66 201 143 132z"/>
<path d="M6923 3180 c-40 -18 -47 -17 -44 3 0 4 -10 7 -24 7 l-25 0 0 -154 0
-154 25 -4 c13 -3 27 -3 30 0 3 3 5 61 5 129 l0 124 34 14 c48 20 95 10 107
-24 6 -14 9 -74 7 -133 l-3 -108 28 0 27 0 0 126 c0 69 -5 134 -10 144 -24 44
-96 58 -157 30z"/>
<path d="M7188 3193 c-16 -4 -18 -20 -18 -159 l0 -154 28 0 27 0 -2 157 c-1
87 -6 158 -10 159 -4 1 -16 0 -25 -3z"/>
<path d="M7360 3190 c-38 -4 -46 -9 -48 -28 -3 -22 -1 -23 30 -16 80 21 128 6
142 -42 6 -19 1 -22 -58 -32 -72 -12 -109 -33 -126 -74 -15 -35 -4 -84 23
-103 26 -18 96 -20 133 -3 22 10 28 10 32 0 2 -6 14 -12 26 -12 21 0 22 2 19
133 -3 127 -4 133 -29 155 -14 12 -35 22 -47 23 -12 0 -29 1 -37 3 -8 1 -35
-1 -60 -4z m128 -200 c4 -55 -13 -70 -80 -70 -42 0 -50 3 -60 25 -14 31 10 72
50 81 15 3 32 7 37 9 6 2 19 3 30 2 16 -2 21 -11 23 -47z"/>
<path d="M8154 3191 c-35 -9 -76 -37 -93 -64 -20 -31 -31 -112 -21 -149 6 -19
23 -47 40 -63 24 -23 41 -29 87 -32 71 -5 113 17 143 76 64 126 -29 262 -156
232z m65 -46 c16 -8 32 -22 36 -32 31 -76 27 -127 -11 -168 -20 -21 -32 -26
-66 -23 -54 4 -80 37 -86 110 -3 44 0 58 18 81 20 26 50 45 73 46 4 1 21 -6
36 -14z"/>
<path d="M8419 3188 c-11 -11 -14 -41 -11 -160 3 -139 4 -146 25 -152 12 -3
23 -3 25 -1 3 2 4 47 3 99 -3 143 3 164 49 176 49 13 87 -1 101 -37 6 -17 9
-70 7 -130 -5 -99 -4 -101 18 -106 13 -2 26 -2 29 1 3 3 5 59 5 124 0 133 -11
170 -57 185 -34 12 -88 6 -125 -13 -35 -18 -38 -18 -38 6 0 23 -10 25 -31 8z"/>
<path d="M9100 3190 c-38 -4 -46 -9 -48 -29 -3 -18 0 -22 11 -18 8 3 34 8 58
11 59 9 94 -10 94 -49 0 -27 -3 -30 -40 -33 -66 -4 -105 -22 -126 -56 -26 -43
-24 -82 6 -111 27 -28 82 -33 132 -14 19 7 29 7 31 0 2 -6 16 -11 30 -11 l27
0 -3 117 c-1 65 -5 128 -7 140 -10 44 -72 64 -165 53z m120 -204 c0 -59 -8
-66 -80 -66 -41 0 -60 14 -60 45 0 37 55 72 118 74 20 1 22 -3 22 -53z"/>
<path d="M3015 3165 c-17 -16 -25 -35 -25 -59 0 -40 19 -58 98 -95 56 -26 67
-42 51 -73 -10 -19 -18 -20 -79 -15 -61 5 -69 4 -73 -13 -3 -10 -2 -21 1 -24
3 -3 38 -6 77 -6 90 0 125 21 125 76 0 53 -15 72 -86 106 -52 25 -64 35 -64
55 0 32 42 49 90 34 38 -11 56 -2 47 23 -5 12 -22 16 -72 16 -57 0 -69 -3 -90
-25z"/>
<path d="M7832 3170 c-49 -30 -72 -75 -72 -142 0 -49 4 -62 30 -91 38 -44 75
-59 135 -55 36 2 51 8 62 25 14 21 14 21 -46 16 -59 -6 -61 -5 -96 30 -31 31
-35 41 -35 86 0 89 66 137 148 107 21 -7 23 -5 20 16 -3 21 -9 23 -58 26 -41
2 -63 -3 -88 -18z"/>
<path d="M6050 2341 l0 -221 30 0 30 0 -3 218 -2 217 -27 3 -28 3 0 -220z"/>
<path d="M4219 2538 c0 -2 -1 -96 -2 -210 l-3 -208 23 0 23 0 0 168 0 167 33
-55 c78 -129 190 -280 208 -280 18 0 19 12 19 210 l0 210 -27 0 -26 0 6 -161
c3 -89 3 -158 -2 -153 -4 5 -50 74 -101 154 -52 80 -99 148 -105 152 -9 7 -44
11 -46 6z"/>
<path d="M4967 2533 c-4 -3 -7 -25 -7 -48 0 -39 -2 -43 -30 -48 -38 -8 -40
-35 -3 -39 26 -3 27 -5 24 -60 -7 -157 23 -222 102 -216 52 4 60 31 10 36 -49
5 -56 21 -57 135 l-1 102 40 3 c67 6 71 42 4 42 l-39 0 0 50 c0 42 -3 50 -18
50 -10 0 -22 -3 -25 -7z"/>
<path d="M4648 2433 c-27 -4 -45 -30 -30 -45 4 -4 23 -3 41 3 36 13 95 7 117
-12 8 -6 14 -22 14 -34 0 -19 -7 -23 -52 -29 -93 -13 -138 -51 -138 -117 0
-29 6 -43 26 -58 30 -24 88 -28 129 -9 19 9 28 9 37 0 7 -7 21 -12 32 -12 20
0 21 5 18 127 -2 70 -8 136 -14 146 -20 37 -92 53 -180 40z m142 -203 c0 -57
-14 -70 -77 -70 -44 0 -63 14 -63 47 0 39 48 70 113 72 26 1 27 -1 27 -49z"/>
<path d="M5150 2343 c1 -125 12 -182 40 -205 26 -21 96 -24 136 -6 22 10 28
10 32 0 2 -6 15 -12 28 -12 l24 0 0 161 0 160 -27 -3 -28 -3 4 -127 3 -128
-26 -10 c-41 -15 -92 -12 -107 6 -10 12 -16 56 -19 138 l-5 121 -27 3 -28 3 0
-98z"/>
<path d="M5528 2433 c-16 -4 -18 -20 -18 -159 l0 -154 30 0 30 0 0 114 c0 110
1 114 25 130 13 9 40 16 60 16 30 0 35 3 35 24 0 17 -7 26 -25 30 -25 6 -77
-14 -90 -34 -11 -18 -27 -11 -20 9 7 22 -2 29 -27 24z"/>
<path d="M5765 2431 c-22 -4 -31 -13 -33 -30 -3 -20 -1 -23 15 -17 10 4 38 10
63 12 56 6 94 -12 98 -47 3 -23 -1 -25 -64 -36 -87 -15 -124 -48 -124 -108 0
-56 30 -85 88 -85 22 0 53 6 68 12 22 10 28 10 32 0 2 -6 15 -12 28 -12 l24 0
0 120 c0 68 -5 130 -11 144 -22 47 -97 66 -184 47z m145 -201 c0 -56 -15 -70
-74 -70 -54 0 -66 8 -66 45 0 46 39 72 113 74 26 1 27 -1 27 -49z"/>
<path d="M6262 2420 c-33 -15 -47 -29 -62 -62 -57 -126 12 -238 148 -238 58 0
92 13 92 35 0 11 -14 13 -70 8 -69 -6 -69 -6 -105 30 -60 60 -52 67 76 67
l112 0 -6 45 c-9 65 -33 104 -72 121 -45 18 -61 18 -113 -6z m103 -45 c14 -13
25 -36 25 -50 0 -25 -1 -25 -81 -25 -73 0 -80 2 -74 18 4 9 9 24 12 33 5 19
51 48 76 49 10 0 29 -11 42 -25z"/>
<path d="M6513 2433 c-7 -2 -13 -11 -13 -19 0 -11 18 -14 80 -14 44 0 80 -4
80 -9 0 -5 -34 -56 -75 -115 -42 -58 -80 -117 -85 -131 l-10 -25 121 0 c109 0
120 2 117 18 -3 14 -17 18 -86 22 l-82 5 81 122 c50 75 79 128 76 138 -5 12
-24 15 -99 14 -51 0 -99 -3 -105 -6z"/>
<path d="M6845 2431 c-22 -4 -31 -13 -33 -30 -3 -20 -1 -23 15 -17 10 4 38 10
63 13 36 4 50 1 73 -17 44 -35 36 -56 -25 -64 -76 -10 -118 -33 -135 -74 -16
-39 -6 -85 24 -108 22 -17 79 -18 123 -2 26 9 35 9 38 0 2 -7 14 -12 27 -12
23 0 24 1 24 110 -1 136 -7 159 -49 188 -33 22 -81 27 -145 13z m143 -204 c3
-43 1 -48 -23 -57 -31 -12 -85 -13 -101 -2 -53 36 12 116 91 109 28 -2 30 -5
33 -50z"/>
<path d="M2011 1777 c2 -1 13 -9 24 -17 19 -14 19 -14 6 3 -7 9 -18 17 -24 17
-6 0 -8 -1 -6 -3z"/>
<path d="M3617 799 c7 -7 15 -10 18 -7 3 3 -2 9 -12 12 -14 6 -15 5 -6 -5z"/>
<path d="M4468 628 c6 -6 18 -8 28 -6 14 3 12 5 -9 10 -19 3 -25 2 -19 -4z"/>
<path d="M4218 603 c7 -3 16 -2 19 1 4 3 -2 6 -13 5 -11 0 -14 -3 -6 -6z"/>
<path d="M4568 603 c6 -2 18 -2 25 0 6 3 1 5 -13 5 -14 0 -19 -2 -12 -5z"/>
<path d="M4298 583 c7 -3 16 -2 19 1 4 3 -2 6 -13 5 -11 0 -14 -3 -6 -6z"/>
<path d="M4338 573 c7 -3 16 -2 19 1 4 3 -2 6 -13 5 -11 0 -14 -3 -6 -6z"/>
</g>
</svg>
